<svg width="263" height="230" viewBox="0 0 263 230" fill="none" xmlns="http://www.w3.org/2000/svg">
<path d="M162.5 38H141.7L232.2 210.8L210.1 210.7L130.6 56.5C102.8 111.7 84.7 147.9 53.4 210.7H31.6L127.1 17.3H162.8V0H136.6H114.8C114.8 0 7.2 215.1 0 229.4H65.3C65.3 229.4 83.6 192.9 96.6 166.9C106.1 147.9 117.5 125.3 130.4 99.8C134.9 108.8 180.6 198.7 186.3 210.7H164.5C160.8 202.6 141.9 169.8 139.3 164.6L119.6 164.7C122.2 169.9 149.9 224.3 152.6 229.5H208.4H217.9H229.1V229.4L262.1 229.7L162.5 38Z" fill="url(#paint0_linear_12_17)"/>
<defs>
<linearGradient id="paint0_linear_12_17" x1="286.194" y1="316.408" x2="53.7749" y2="87.4566" gradientUnits="userSpaceOnUse">
<stop stop-color="#FF014F"/>
<stop offset="1" stop-color="#8B2645"/>
</linearGradient>
</defs>
</svg>
