<svg width="267" height="280" viewBox="0 0 267 280" fill="none" xmlns="http://www.w3.org/2000/svg">
<path d="M14.152 269.612H5.752L4.096 273.5H0.88L8.44 256.7H11.512L19.096 273.5H15.832L14.152 269.612ZM13.12 267.164L9.952 259.82L6.808 267.164H13.12ZM56.2246 273.5L52.7926 268.58C52.6486 268.596 52.4326 268.604 52.1446 268.604H48.3526V273.5H45.2326V256.7H52.1446C53.6006 256.7 54.8646 256.94 55.9366 257.42C57.0246 257.9 57.8566 258.588 58.4326 259.484C59.0086 260.38 59.2966 261.444 59.2966 262.676C59.2966 263.94 58.9846 265.028 58.3606 265.94C57.7526 266.852 56.8726 267.532 55.7206 267.98L59.5846 273.5H56.2246ZM56.1526 262.676C56.1526 261.604 55.8006 260.78 55.0966 260.204C54.3926 259.628 53.3606 259.34 52.0006 259.34H48.3526V266.036H52.0006C53.3606 266.036 54.3926 265.748 55.0966 265.172C55.8006 264.58 56.1526 263.748 56.1526 262.676ZM89.9609 259.34H84.3929V256.7H98.6489V259.34H93.0809V273.5H89.9609V259.34ZM132.532 273.74C130.836 273.74 129.3 273.372 127.924 272.636C126.564 271.884 125.492 270.852 124.708 269.54C123.94 268.228 123.556 266.748 123.556 265.1C123.556 263.452 123.948 261.972 124.732 260.66C125.516 259.348 126.588 258.324 127.948 257.588C129.324 256.836 130.86 256.46 132.556 256.46C133.932 256.46 135.188 256.7 136.324 257.18C137.46 257.66 138.42 258.356 139.204 259.268L137.188 261.164C135.972 259.852 134.476 259.196 132.7 259.196C131.548 259.196 130.516 259.452 129.604 259.964C128.692 260.46 127.98 261.156 127.468 262.052C126.956 262.948 126.7 263.964 126.7 265.1C126.7 266.236 126.956 267.252 127.468 268.148C127.98 269.044 128.692 269.748 129.604 270.26C130.516 270.756 131.548 271.004 132.7 271.004C134.476 271.004 135.972 270.34 137.188 269.012L139.204 270.932C138.42 271.844 137.452 272.54 136.3 273.02C135.164 273.5 133.908 273.74 132.532 273.74ZM173.69 273.74C171.978 273.74 170.434 273.372 169.058 272.636C167.682 271.884 166.602 270.852 165.818 269.54C165.034 268.212 164.642 266.732 164.642 265.1C164.642 263.468 165.034 261.996 165.818 260.684C166.602 259.356 167.682 258.324 169.058 257.588C170.434 256.836 171.978 256.46 173.69 256.46C175.402 256.46 176.946 256.836 178.322 257.588C179.698 258.324 180.778 259.348 181.562 260.66C182.346 261.972 182.738 263.452 182.738 265.1C182.738 266.748 182.346 268.228 181.562 269.54C180.778 270.852 179.698 271.884 178.322 272.636C176.946 273.372 175.402 273.74 173.69 273.74ZM173.69 271.004C174.81 271.004 175.818 270.756 176.714 270.26C177.61 269.748 178.314 269.044 178.826 268.148C179.338 267.236 179.594 266.22 179.594 265.1C179.594 263.98 179.338 262.972 178.826 262.076C178.314 261.164 177.61 260.46 176.714 259.964C175.818 259.452 174.81 259.196 173.69 259.196C172.57 259.196 171.562 259.452 170.666 259.964C169.77 260.46 169.066 261.164 168.554 262.076C168.042 262.972 167.786 263.98 167.786 265.1C167.786 266.22 168.042 267.236 168.554 268.148C169.066 269.044 169.77 269.748 170.666 270.26C171.562 270.756 172.57 271.004 173.69 271.004ZM210.045 256.7H217.389C219.181 256.7 220.773 257.052 222.165 257.756C223.557 258.444 224.637 259.428 225.405 260.708C226.173 261.972 226.557 263.436 226.557 265.1C226.557 266.764 226.173 268.236 225.405 269.516C224.637 270.78 223.557 271.764 222.165 272.468C220.773 273.156 219.181 273.5 217.389 273.5H210.045V256.7ZM217.245 270.86C218.477 270.86 219.557 270.628 220.485 270.164C221.429 269.684 222.149 269.012 222.645 268.148C223.157 267.268 223.413 266.252 223.413 265.1C223.413 263.948 223.157 262.94 222.645 262.076C222.149 261.196 221.429 260.524 220.485 260.06C219.557 259.58 218.477 259.34 217.245 259.34H213.165V270.86H217.245ZM260.395 267.572V273.5H257.275V267.62L250.675 256.7H254.011L258.931 264.884L263.899 256.7H266.971L260.395 267.572Z" fill="white"/>
<path d="M165.5 38H144.7L235.2 210.8L213.1 210.7L133.6 56.5C105.8 111.7 87.7 147.9 56.4 210.7H34.6L130.1 17.3H165.8V0H139.6H117.8C117.8 0 10.2 215.1 3 229.4H68.3C68.3 229.4 86.6 192.9 99.6 166.9C109.1 147.9 120.5 125.3 133.4 99.8C137.9 108.8 183.6 198.7 189.3 210.7H167.5C163.8 202.6 144.9 169.8 142.3 164.6L122.6 164.7C125.2 169.9 152.9 224.3 155.6 229.5H211.4H220.9H232.1V229.4L265.1 229.7L165.5 38Z" fill="url(#paint0_linear_12_15)"/>
<defs>
<linearGradient id="paint0_linear_12_15" x1="289.194" y1="316.408" x2="56.7749" y2="87.4566" gradientUnits="userSpaceOnUse">
<stop stop-color="#FF014F"/>
<stop offset="1" stop-color="#8B2645"/>
</linearGradient>
</defs>
</svg>
