<svg width="108" height="57" viewBox="0 0 108 57" fill="none" xmlns="http://www.w3.org/2000/svg">
<path d="M103.6 25.1702H89.2C85.5618 25.1545 82.0681 26.4286 79.5 28.7076L57.4 48.2519V6.02397C57.3844 3.78765 55.8465 1.78 53.5039 0.937766C51.1613 0.0955306 48.4756 0.584699 46.7 2.17703L22.55 23.5342C21.3768 24.5879 19.7721 25.1779 18.1 25.1702H3.75C1.67893 25.1702 0 26.655 0 28.4866C0 30.3181 1.67893 31.8029 3.75 31.8029H18.1C21.847 31.8689 25.4609 30.5745 28.1 28.2213L49.8 8.72125V50.9491C49.7949 53.1788 51.3169 55.1891 53.65 56.0342C54.4062 56.3286 55.2238 56.4792 56.05 56.4764C57.7059 56.4771 59.2922 55.8873 60.45 54.8403L84.8 33.3947C85.9723 32.3723 87.5535 31.8002 89.2 31.8029H103.6C105.671 31.8029 107.35 30.3181 107.35 28.4866C107.35 26.655 105.671 25.1702 103.6 25.1702V25.1702Z" fill="#687591"/>
</svg>
