<svg width="102" height="100" viewBox="0 0 102 100" fill="none" xmlns="http://www.w3.org/2000/svg">
<path fill-rule="evenodd" clip-rule="evenodd" d="M55.15 17.3C55.1231 19.3598 53.4599 21.0231 51.4 21.05C49.3402 21.0231 47.677 19.3598 47.65 17.3V3.75C47.65 1.67893 49.329 0 51.4 0C53.4711 0 55.15 1.67893 55.15 3.75V17.3ZM51.75 25.65H51.4C41.8497 25.4769 33.0354 30.7608 28.6873 39.2657C24.3392 47.7705 25.2173 58.0097 30.95 65.65C35.944 72.3326 38.7237 80.4094 38.9 88.75C39.698 95.0459 45.0538 99.7657 51.4 99.7657C57.7462 99.7657 63.102 95.0459 63.9 88.75C63.635 80.7451 66.1234 72.8916 70.95 66.5C74.3567 62.2297 76.2709 56.9611 76.4 51.5C76.5716 37.6171 65.6254 26.138 51.75 25.65ZM51.4 25.65L51.65 33.15C58.3926 33.2511 64.4921 37.1747 67.3797 43.2685C70.2674 49.3623 69.4416 56.5676 65.25 61.85C61.2021 67.0866 58.4906 73.2303 57.35 79.75H45.35C43.8461 73.0272 40.988 66.6814 36.95 61.1C33.1132 55.6986 32.6143 48.6067 35.657 42.7213C38.6998 36.8359 44.7746 33.1425 51.4 33.15V25.65ZM51.4 93.75C48.6386 93.75 46.4 91.5114 46.4 88.75V87.45H56.7V88.85C56.6752 90.2123 56.0956 91.5055 55.0951 92.4304C54.0947 93.3554 52.7601 93.832 51.4 93.75ZM87.95 14.35C86.4859 12.8877 84.1141 12.8877 82.65 14.35L73.3 23.65C71.8586 25.1421 71.8586 27.5079 73.3 29C74.8119 30.3915 77.1382 30.3915 78.65 29L87.95 19.65C89.4123 18.1859 89.4123 15.8141 87.95 14.35ZM85 45.15H98.15C100.221 45.15 101.9 46.8289 101.9 48.9C101.9 50.9711 100.221 52.65 98.15 52.65H85C82.929 52.65 81.25 50.9711 81.25 48.9C81.25 46.8289 82.929 45.15 85 45.15ZM16.9 45.15H3.75C1.67893 45.15 0 46.8289 0 48.9C0 50.9711 1.67893 52.65 3.75 52.65H16.9C18.9711 52.65 20.65 50.9711 20.65 48.9C20.65 46.8289 18.9711 45.15 16.9 45.15ZM30.0719 26.325C30.0719 27.3311 29.6677 28.2949 28.95 29C28.2364 29.6806 27.2861 30.0571 26.3 30.05C25.3149 30.0519 24.3665 29.6761 23.65 29L14.35 19.65C13.3467 18.7151 12.9338 17.3072 13.2731 15.9786C13.6124 14.6499 14.6499 13.6124 15.9786 13.2731C17.3072 12.9338 18.7152 13.3467 19.65 14.35L28.95 23.65C29.6677 24.3551 30.0719 25.3189 30.0719 26.325Z" fill="#687591"/>
</svg>
