<svg width="54" height="91" viewBox="0 0 54 91" fill="none" xmlns="http://www.w3.org/2000/svg">
<path d="M34.245 15.1667C37.2954 15.1697 40.22 16.3962 42.377 18.5772C44.5339 20.7581 45.747 23.7152 45.75 26.7995C45.75 27.8051 46.1451 28.7695 46.8484 29.4806C47.5516 30.1917 48.5054 30.5912 49.5 30.5912C50.4946 30.5912 51.4484 30.1917 52.1517 29.4806C52.8549 28.7695 53.25 27.8051 53.25 26.7995V26.5417C53.25 26.4696 53.25 26.4052 53.25 26.3331C53.1249 21.3195 51.068 16.5536 47.5179 13.0511C43.9678 9.54867 39.2051 7.58668 34.245 7.58333H30.75V3.79167C30.75 2.78605 30.3549 1.82163 29.6517 1.11055C28.9484 0.399478 27.9946 0 27 0C26.0054 0 25.0516 0.399478 24.3484 1.11055C23.6451 1.82163 23.25 2.78605 23.25 3.79167V7.58333H19.755C15.2449 7.5882 10.8836 9.21464 7.45048 12.1719C4.01737 15.1292 1.73629 19.2246 1.01495 23.7261C0.293612 28.2275 1.17904 32.8417 3.51297 36.7437C5.8469 40.6458 9.47721 43.5815 13.755 45.026L23.25 48.23V75.8333H19.755C16.7046 75.8303 13.78 74.6038 11.623 72.4228C9.46607 70.2419 8.25298 67.2848 8.25 64.2005C8.25 63.1949 7.85491 62.2305 7.15165 61.5194C6.44839 60.8083 5.49456 60.4088 4.5 60.4088C3.50544 60.4088 2.55161 60.8083 1.84835 61.5194C1.14509 62.2305 0.75 63.1949 0.75 64.2005V64.4583C0.75 64.5304 0.75 64.5948 0.75 64.6669C0.87515 69.6805 2.93198 74.4464 6.48212 77.9489C10.0323 81.4513 14.7949 83.4133 19.755 83.4167H23.25V87.2083C23.25 88.214 23.6451 89.1784 24.3484 89.8895C25.0516 90.6005 26.0054 91 27 91C27.9946 91 28.9484 90.6005 29.6517 89.8895C30.3549 89.1784 30.75 88.214 30.75 87.2083V83.4167H34.245C38.7551 83.4118 43.1164 81.7854 46.5495 78.8281C49.9826 75.8708 52.2637 71.7754 52.9851 67.2739C53.7064 62.7725 52.821 58.1583 50.487 54.2563C48.1531 50.3542 44.5228 47.4185 40.245 45.974L30.75 42.77V15.1667H34.245ZM37.8825 53.163C40.4753 54.0355 42.6764 55.8128 44.0915 58.1765C45.5066 60.5402 46.0434 63.336 45.6058 66.0634C45.1682 68.7908 43.7847 71.2716 41.7031 73.0617C39.6215 74.8519 36.9777 75.8344 34.245 75.8333H30.75V50.759L37.8825 53.163ZM23.25 40.241L16.125 37.837C13.5328 36.9647 11.3322 35.1881 9.91701 32.8252C8.50185 30.4622 7.9645 27.6672 8.40113 24.9404C8.83776 22.2135 10.2199 19.7327 12.3001 17.942C14.3804 16.1512 17.023 15.1674 19.755 15.1667H23.25V40.241Z" fill="#687590"/>
</svg>
